<?xml version="1.0" encoding="utf-8"?>
<!-- Generator: Adobe Illustrator 19.2.1, SVG Export Plug-In . SVG Version: 6.00 Build 0)  -->
<svg version="1.1" id="layer" xmlns="http://www.w3.org/2000/svg" xmlns:xlink="http://www.w3.org/1999/xlink" x="0px" y="0px"
	 viewBox="0 0 652 652" style="enable-background:new 0 0 652 652;" xml:space="preserve">
<style type="text/css">
	.st0{fill-rule:evenodd;clip-rule:evenodd;fill:#FFFFFF;}
</style>
<rect x="20.8" y="264.9" width="600" height="113.5"/>
<path class="st0" d="M123.6,327.8h-20v9c0,3,0,4.7,0.5,5.6c0,0.8,0.4,1.7,0.9,2.2c0.8,0.4,1.7,0.4,3.5,0.4h1.3v1.3H92.3V345h1.3
	c1.3,0,2.6,0,3-0.4c0.9-0.5,1.3-0.9,1.3-1.7c0.4-0.9,0.4-3,0.4-6v-18.4c0-3,0-4.7-0.4-5.6c0-0.8-0.4-1.7-0.9-1.7
	c-0.9-0.4-2.2-0.4-3.9-0.4h-0.9v-1.3h17.4v1.3h-0.9c-1.8,0-3.1,0-3.5,0.4c-0.9,0-1.3,0.9-1.3,1.7c-0.5,0.4-0.5,2.6-0.5,5.6v7.3h20
	v-7.3c0-3-0.4-4.7-0.4-5.6c0-0.8-0.4-1.7-1.3-1.7c-0.4-0.4-1.7-0.4-3.5-0.4h-0.9v-1.3h17v1.3h-0.5c-1.7,0-3,0-3.9,0.4
	c-0.4,0-0.9,0.9-0.9,1.7c-0.4,0.4-0.4,2.6-0.4,5.6v18.4c0,3,0,4.7,0.4,5.6c0,0.8,0.4,1.7,0.9,2.2c0.9,0.4,1.7,0.4,3.5,0.4h0.9v1.3
	h-17V345h1.3c1.3,0,2.6,0,3-0.4c0.9-0.5,1.3-0.9,1.3-1.7c0-0.9,0.4-3,0.4-6V327.8z"/>
<path class="st0" d="M165,345.8h0.4c4.3,0,7.8-1.7,10-4.7c2.6-3,3.9-7.3,3.9-13.3c0-5.6-1.3-10.3-3.9-13.3c-2.2-3-5.7-4.7-10.5-4.7
	v-1.3c6.1,0,10.9,1.7,14.8,5.2c3.9,3.4,6,8.2,6,14.1c0,5.6-2.2,10.3-6,14.2c-3.5,3.4-8.7,5.1-14.8,5.1V345.8z M151.1,327.8
	c0,6,0.9,10.3,3.5,13.3c2.2,3,6.1,4.7,10.5,4.7v1.3c-6.1,0-10.9-1.7-14.8-5.1c-3.9-3.9-5.7-8.6-5.7-14.6c0-5.6,2.2-10.3,5.7-13.7
	c3.9-3.4,9.1-5.2,14.8-5.2v1.3c-4.4,0-7.9,1.7-10.5,4.7C152,317.6,151.1,321.9,151.1,327.8"/>
<path class="st0" d="M213.4,327.4c0.4,0,0.9-0.5,1.3-0.5c1.3-0.4,2.6-1.3,3.5-2.6c0.9-1.7,1.3-3.4,1.3-5.2c0-3-0.9-5.6-2.2-6.8
	c-0.9-0.9-2.2-1.7-3.9-1.7V309c1.8,0,3.5,0.4,4.8,0.9c2.2,0.4,3.9,1.7,5.2,3c1.3,1.7,2.2,3.9,2.2,6c0,2.2-0.4,3.9-1.3,5.6
	c-1.3,1.3-2.6,2.6-4.4,3.4c-1.3,0.4-3.5,0.9-6.5,0.9V327.4z M206.8,327.4h2.6h4v1.3c-0.9,0.4-1.8,0.4-2.2,0.4h-4.4v7.7
	c0,3,0,4.7,0.5,5.6c0,0.9,0.4,1.7,0.9,2.2c0.9,0.4,1.7,0.4,3.5,0.4h1.3v1.3h-17.4V345h1.3c1.3,0,2.6,0,3-0.4
	c0.9-0.5,1.3-0.9,1.3-1.7c0-0.8,0.4-3,0.4-6v-18.4c0-3-0.4-4.7-0.4-5.6c0-0.8-0.5-1.7-1.3-1.7c-0.4-0.4-1.7-0.4-3.5-0.4h-0.9v-1.3
	l4.8-0.4h8.7h4.4v1.7c-1.3-0.4-2.2-0.4-3.5-0.4h-3V327.4z"/>
<path class="st0" d="M251.7,327.4c0.5,0,0.9-0.5,1.8-0.5c1.3-0.4,2.2-1.3,3.1-2.6c0.8-1.7,1.3-3.4,1.3-5.2c0-3-0.4-5.6-2.2-6.8
	c-0.9-0.9-2.2-1.7-3.9-1.7V309c1.8,0,3.5,0.4,4.8,0.9c2.2,0.4,3.9,1.7,5.2,3c1.3,1.7,2.2,3.9,2.2,6c0,2.2-0.4,3.9-1.3,5.6
	c-0.9,1.3-2.2,2.6-3.9,3.4c-1.7,0.4-3.9,0.9-7,0.9V327.4z M245.2,327.4h2.6h3.9v1.3c-0.9,0.4-1.3,0.4-2.2,0.4h-4.4v7.7
	c0,3,0,4.7,0.5,5.6c0,0.9,0.4,1.7,0.8,2.2c0.9,0.4,1.7,0.4,3.5,0.4h1.3v1.3h-17.4V345h1.3c1.3,0,2.6,0,3.1-0.4
	c0.9-0.5,1.3-0.9,1.3-1.7c0.4-0.8,0.4-3,0.4-6v-18.4c0-3,0-4.7-0.4-5.6c0-0.8-0.4-1.7-0.9-1.7c-0.9-0.4-2.2-0.4-3.9-0.4h-0.9v-1.3
	l4.8-0.4h9.2h3.9v1.7c-1.3-0.4-2.2-0.4-3.5-0.4h-3.1V327.4z"/>
<path class="st0" d="M303.1,334.7h1.3l-0.9,11.6h-31.4V345h0.9c2.2,0,3,0,3.9-0.4c0.4-0.5,0.9-1.3,0.9-2.2v-5.6v-18.4v-5.6
	c0-0.8-0.4-1.3-1.3-1.7c-0.4-0.4-1.7-0.4-3.4-0.4v-1.3h27l0.9,9h-1.3c-0.4-2.6-1.3-4.3-2.2-5.6c-0.9-0.8-1.7-1.7-3-1.7
	c-1.3-0.4-3.1-0.4-5.7-0.4h-5.2v15.4h4c1.7,0,3,0,3.9-0.5c0.9-0.4,1.3-0.8,1.3-1.3c0.4-0.8,0.4-2.1,0.4-3.8h1.3v12.8h-1.3
	c0-2.1,0-3.4-0.4-4.3c-0.4-0.8-0.9-1.3-1.7-1.3c-0.4-0.4-1.8-0.4-3-0.4h-4.4v9c0,4.3,0.4,6.8,0.9,7.7c0.4,0.9,2.2,0.9,4.8,0.9h2.6
	c2.2,0,3.5,0,4.8-0.4c1.3-0.5,2.6-1.7,3.9-3C301.4,339.8,302.7,337.7,303.1,334.7"/>
<path class="st0" d="M331.9,327c0.9-0.4,1.3-0.4,1.8-0.4c1.3-0.4,2.2-0.9,2.6-1.3c0.9-0.9,1.3-1.7,1.8-2.5c0.4-1.3,0.4-2.6,0.4-3.9
	c0-2.5-0.4-4.7-1.8-6.4c-0.9-0.9-2.6-1.7-4.8-2.2V309c2.2,0,3.9,0.4,5.2,0.9c2.2,0.4,3.9,1.7,5.2,3c1.7,1.7,2.2,3.4,2.2,5.6
	c0,2.2-0.9,4.3-2.6,6c-1.8,1.7-4.4,3-7.8,3.4c1.3,0.9,3.9,3.4,7.4,8.1c3,3.8,5.3,6,7,7.3c1.3,1.3,3.5,1.7,5.7,1.7v1.3h-10
	c-2.2-0.9-4.8-4.3-8.3-9.4c-1.3-1.7-2.6-3.4-3.9-4.7V327z M331.9,346.3L331.9,346.3V345V346.3z M325.4,327.4c1.7,0,3-0.5,4.4-0.5
	h2.2v5.2v-0.4c-1.3-1.3-2.2-2.2-2.6-2.6c-0.4-0.4-1.3-0.4-2.2-0.4h-1.7v8.1c0,3,0,4.7,0.4,5.6c0,0.9,0.4,1.7,0.9,2.2
	c0.9,0.4,1.7,0.4,3.5,0.4h1.7v1.3H314V345h1.3c1.3,0,2.6,0,3-0.4c0.9-0.5,1.3-0.9,1.3-1.7c0.4-0.8,0.4-3,0.4-6v-18.4
	c0-3,0-4.7-0.4-5.6c0-0.8-0.4-1.7-0.9-1.7c-0.9-0.4-2.2-0.4-3.9-0.4h-0.4v-1.3l5.2-0.4c3.5,0,6.5-0.4,8.7-0.4c1.3,0,2.6,0.4,3.5,0.4
	v1.3H328h-2.6V327.4z"/>
<path class="st0" d="M361.1,346.3v-12h1.3c1.3,7.8,5.2,11.6,11.3,11.6c2.6,0,4.4-0.9,6.1-2.2c1.3-1.7,2.1-3.4,2.1-5.1
	c0-1.7-0.9-3.4-2.1-4.7c-1.3-1.2-3.5-2.5-7-3.8c-3.1-1.3-5.2-2.5-6.5-3.4c-1.7-0.9-3-2.1-3.9-3.8c-0.9-1.3-1.3-3-1.3-4.7
	c0-3,0.8-5.2,3-6.9c1.8-1.7,3.9-2.6,7-2.6c1.7,0,3,0.4,4.4,0.9c1.7,0.4,3,1.3,4.4,3c0.9-0.9,1.3-2.2,1.7-3h0.9v9.4h-0.9
	c-0.9-2.5-2.2-4.7-3.9-6.4c-1.7-1.7-3.9-2.6-6.1-2.6c-2.2,0-3.9,0.4-5.2,1.7c-0.9,1.3-1.3,2.6-1.3,3.9c0,1.7,0.4,3.4,1.7,4.7
	c1.3,0.8,3.9,2.6,6.9,3.8c3.5,1.3,5.6,2.6,7.4,3.4c1.3,0.8,2.6,2.1,3.5,3.8c0.9,1.3,1.3,3,1.3,5.1c0,3-0.9,5.6-3,7.7
	c-2.2,2.2-5.3,3-8.7,3c-4.4,0-7.8-1.7-10.5-4.7c-0.4,0.9-1.3,2.2-1.3,3.8H361.1z"/>
<path class="st0" d="M466.5,318h-1.3v-8.6h37v8.6H501c-0.4-2.2-0.9-3.9-1.7-5.2c-0.9-0.8-1.3-1.7-2.2-2.1h-4.4h-6.1v26.1v5.6
	c0,0.9,0.4,1.7,1.3,2.2c0.4,0.4,1.7,0.4,3.5,0.4h1.7v1.3h-18.7V345h1.7c1.7,0,2.6,0,3.5-0.4c0.4-0.5,0.9-0.9,1.3-1.7v-6v-26.1h-5.6
	h-4.8c-0.9,0.4-1.7,1.3-2.2,2.1C467.4,314.1,467,315.8,466.5,318"/>
<path class="st0" d="M530.6,345.8h0.5c4.3,0,7.8-1.7,10-4.7c2.6-3,3.9-7.3,3.9-13.3c0-5.6-1.3-10.3-3.9-13.3
	c-2.2-3-5.7-4.7-10.5-4.7v-1.3c6.1,0,10.9,1.7,14.8,5.2c3.9,3.4,6.1,8.2,6.1,14.1c0,5.6-2.2,10.3-6.1,14.2
	c-3.5,3.4-8.7,5.1-14.8,5.1V345.8z M516.7,327.8c0,6,1.3,10.3,3.5,13.3c2.2,3,6.1,4.7,10.5,4.7v1.3c-6.1,0-10.9-1.7-14.8-5.1
	c-3.9-3.9-5.7-8.6-5.7-14.6c0-5.6,2.2-10.3,6.1-13.7c3.5-3.4,8.7-5.2,14.4-5.2v1.3c-4.4,0-7.9,1.7-10.5,4.7
	C517.9,317.6,516.7,321.9,516.7,327.8"/>
<path class="st0" d="M579.8,327.4c0.9,0,1.3-0.5,1.7-0.5c1.3-0.4,2.6-1.3,3.5-2.6c0.9-1.7,1.3-3.4,1.3-5.2c0-3-0.9-5.6-2.2-6.8
	c-1.3-0.9-2.6-1.7-4.4-1.7V309c2.2,0,3.9,0.4,5.2,0.9c2.2,0.4,3.9,1.7,5.2,3c1.3,1.7,1.7,3.9,1.7,6c0,2.2-0.4,3.9-1.3,5.6
	c-0.9,1.3-2.2,2.6-3.9,3.4c-1.3,0.4-3.5,0.9-7,0.9V327.4z M573.7,327.4h2.6h3.5v1.3c-0.5,0.4-1.3,0.4-2.2,0.4h-4v7.7v5.6
	c0.4,0.9,0.4,1.7,1.3,2.2c0.4,0.4,1.8,0.4,3.5,0.4h1.3v1.3h-17.5V345h0.9c1.7,0,2.6,0,3.4-0.4c0.4-0.5,0.9-0.9,1.3-1.7v-6v-18.4
	v-5.6c-0.5-0.8-0.9-1.7-1.3-1.7c-0.4-0.4-1.7-0.4-3.4-0.4h-0.9v-1.3l4.8-0.4h8.7h3.9v1.7c-0.9-0.4-2.2-0.4-3.5-0.4h-2.6V327.4z"/>
<path class="st0" d="M49.1,345.8V330h1.7c1.8,10.3,7,15.4,14.8,15.4c3.5,0,6.5-0.9,8.3-2.6c2.2-2.1,3.1-4.3,3.1-6.9
	c0-2.6-0.4-5.6-2.2-7.3c-1.8-1.3-5.2-3.4-9.6-5.1c-3.9-1.7-7-3-9.1-4.3c-2.2-1.2-4.4-2.5-5.3-4.7c-1.2-2.1-1.7-4.3-1.7-6.4
	c0-3.4,1.3-6.4,3.9-8.6c2.2-2.6,5.7-3.4,9.2-3.4c2.2,0,4.4,0,6.1,0.9c2.2,0.8,3.9,2.2,6.1,4.3c0.9-1.3,1.8-3,1.8-4.3h1.3v12.8h-1.3
	c-0.9-3.8-2.6-6.9-4.8-9c-2.6-2.2-5.2-3.4-8.7-3.4c-2.6,0-5.2,0.9-6.5,2.6c-1.7,1.7-2.2,3.4-2.2,5.6c0,2.1,0.8,4.7,2.6,6.4
	c1.7,1.2,4.8,3.4,9.6,5.1c4.4,2.1,7.4,3.4,9.6,4.7c1.7,1.3,3.4,2.5,4.8,4.7c1.3,2.1,1.8,3.9,1.8,6.4c0,4.3-1.3,7.7-4.4,10.3
	c-3.1,2.6-6.6,4.3-11.8,4.3c-5.2,0-10-2.2-13.5-6.4c-0.9,1.3-1.8,2.5-1.8,4.7H49.1z"/>
<path class="st0" d="M423.8,345.8V330h1.8c1.7,10.3,7,15.4,14.8,15.4c3.5,0,6.5-0.9,8.3-2.6c2.6-2.1,2.6-4.3,2.6-6.9
	c0-2.6,0-5.6-1.8-7.3c-1.8-1.3-5.2-3.4-9.6-5.1c-3.9-1.7-6.9-3-9.2-4.3c-2.2-1.2-4.3-2.5-5.2-4.7c-1.3-2.1-1.8-4.3-1.8-6.4
	c0-3.4,1.3-6.4,4-8.6c2.6-2.6,5.6-3.4,9.6-3.4c1.8,0,3.9,0,5.7,0.9c2.2,0.8,3.9,2.2,6.1,4.3c0.9-1.3,1.8-3,1.8-4.3h0.9v12.8h-0.9
	c-0.9-3.8-2.6-6.9-4.8-9c-2.6-2.2-5.2-3.4-8.3-3.4c-3,0-5.6,0.9-7,2.6c-1.7,1.7-2.2,3.4-2.2,5.6c0,2.1,0.9,4.7,2.6,6.4
	c1.8,1.2,4.8,3.4,9.6,5.1c4.4,2.1,7.4,3.4,9.6,4.7c1.3,1.3,3.1,2.5,4.4,4.7c1.3,2.1,1.8,3.9,1.8,6.4c0,4.3-1.3,7.7-4.4,10.3
	c-2.6,2.6-6.1,4.3-10.9,4.3c-5.7,0-10.5-2.2-14-6.4c-0.9,1.3-1.3,2.5-1.7,4.7H423.8z"/>
</svg>
