<svg xmlns="http://www.w3.org/2000/svg" width="1550" height="606"><clipPath id="a"><path d="M2996-367v6299h-4455V-367z"/></clipPath><g clip-path="url(#a)"><path fill="#241f21" fill-rule="evenodd" d="M581.8 532.3c0 29.4.9 51 10.4 73.5h-96.9c-5.2-15.6-8.6-25.1-8.6-74.4V420.7c0-56.3-16.5-74.4-59.7-74.4h-32.9v259.5H299V86.7H195.5v519.1h-95.2V86.7H.9V.2H440c98.6 0 141 45.9 141 139.3v37.2c0 62.3-19.9 102.1-62.3 119.4v1.7c47.6 14.7 63.1 59.7 63.1 128.1zm-96-383.3c0-43.3-14.7-62.3-48.4-62.3h-43.3v173h34.6c35.5 0 57.1-15.5 57.1-64zM643.3.2h259.5v86.5H738.4v160.1h130.7v86.5H738.4v186h164.4v86.5H643.3zm906.3 0v86.5h-99.4v519.1H1355V86.7h-102.7v519.1h-97.7l-114.2-442.1h-1.8v442.1h-84.7V.2h119.3l92.6 362.5h1.7V.2z"/></g></svg>