<svg height="103" viewBox="0 0 101 103" width="101" xmlns="http://www.w3.org/2000/svg"><path d="m44.2777778 5.34101548v-5.34101548h-26l.1481481 5.22974433c1.5925926.11127115 3.4814815 0 4.962963.63053655.7407407.33381347 1.7037037 1.29816348 2.1851852 2.22542312 7.0466872 19.5466317 14.0590437 39.1056585 21.037037 58.6769896h8.1481482c0-.0370904 11.5185185-31.6751891 17.2592592-47.2902413l2.6666667-7.4922578c1.4814815-4.33957513 3.4814815-6.37954632 8-6.97299248v-5.00720202h-25.7037037v4.71047893c2.1851852.22254232 6.7037037-.18545192 7.2222222 2.52214621.2962963 1.59488656-.4074074 3.93158086-6.1481481 20.62225426-2.4444445 7.0471732-4.5925926 14.2427079-7.3333334 21.2157004-2.5925926-6.4908175-4.7037037-13.2041772-6.8888889-19.8062658l-3.7777777-11.1271156c-1.8518519-5.5635578-3.4074075-10.38530787-3.4074075-10.83039249 0-3.18977314 5.4814815-2.11415197 7.6296297-1.96579043zm.4444444 83.49045732-4.4444444-12.610731c-.8148148-2.410875-.9259259-2.596327-1.6296297-2.596327-.7407407 0-.8148148.185452-2.2222222 4.3024847-7.4074074 22.1429605-7.4444444 22.2542315-9.3703703 22.2542315-.8148149 0-.8518519.07418-.8518519 1.149802v1.112711l8.8888889-.111271v-1.00144c0-.96435-.037037-1.001441-1.1851852-1.149802-1.7407407-.2225426-2.1481481-.7047176-1.962963-2.2254234.0740741-.7418077.4074075-2.0399712.7407408-2.9301404l.6296296-1.631977h3.8518519l4.4444444-.1112712c.4444445 0 .7037037.4450847 1.4444445 2.5221463.5185185 1.4094346.8888888 2.9672308.8518518 3.4123154-.0740741.8159883-.1111111.8530793-1.5555555.9272593-1.6296297.074181-1.925926.370904-1.6296297 1.594887l.1851852.741808h10.1481482v-1.149802c0-1.112712 0-1.112712-1-1.112712-.7407408 0-1.1111112-.185452-1.4074075-.7047172-.2592592-.3709039-2.037037-5.192654-3.9259259-10.682031zm-10.6296296 2.114152 1.7777778-5.3781059c1.037037-3.078502 1.8518518-5.007202 1.9629629-4.7475693.2962963.5192654 3.6296297 9.7918617 3.6296297 10.0885848s-7.3703704.3338135-7.3703704 0zm-20.8888889-3.9686713c-.1111111-.1112711-1.2592593-3.0414115-2.5555556-6.4908174l-2.33333329-6.3053655h-7.81481481v1.0014404c0 .96435 0 .96435 1.22222222.96435.66666667 0 1.37037037.1483616 1.55555556.3709039.25925926.2225423.33333333 3.1526827.33333333 11.3867483v1.0385308c0 8.6049694 0 10.496579-.88888889 11.127116-.28851923.153374-.60209332.253862-.92592592.296723l-.14814815.03709c-.85185185.222542-1 .370904-1 1.112712v.815988l8.33333333.148362v-.96435c0-.853079-.11111111-1.001441-.81481481-1.112712-.53968437-.162967-1.00917565-.502532-1.33333334-.96435-.51851852-.7418077-.55555555-1.4836154-.59259259-10.8303925-.03703704-5.5264674 0-9.9031329.07407407-9.7547713l2.74074075 7.0471732 2.59259254 6.7875405h2.4814815l2.3333334-6.4908174 2.4814814-6.9359021c.0740741-.2225423.1111112 4.3395751.1111112 10.199856l-.0740741 10.6078506-1.2592593.111271c-1.2222222.148361-1.2592592.185452-1.3703703 1.223982l-.0740741 1.038531h9.3703703v-2.225423l-2.7037037-.148361-.074074-11.4238391c-.0370371-7.5293482 0-11.5722002.2222222-11.9431041.2222222-.4079942.5925926-.5563558 1.5555555-.5563558 1.2592593 0 1.2592593 0 1.2592593-.96435v-1.0014404h-7.7777778l-2.3703703 6.5279078c-1.2962963 3.5977674-2.4444445 6.4166367-2.5925926 6.3053655zm60.5185185-6.0086424c0-2.9672308-1.6666666-5.4151962-4.2962963-6.3424559-1-.3709038-2.7407407-.4450846-9.2592592-.4450846h-8.0370371l.1111111.9272596c.0740741.8530789.1481482.9272597 1.2222223 1.0014405.5925926 0 1.4074074.1112711 1.7407407.1854519l.6666667.1483615-.1481482 23.6265759-3.4074074.259632v2.002881l11.7037037.148362v-2.336695h-1.6296296c-.8888889 0-1.7777778-.1483612-1.962963-.3338131-.2592592-.2225423-.3703703-1.8545193-.3703703-5.6377386v-5.3410155h1.9259259c3.8888889 0 4.8888889 1.2981635 5.5555555 7.2326251.2222223 2.0399712.5925926 4.1541231.8148149 4.7475691.5925925 1.335254 1.9259259 2.188333 3.5925925 2.188333 2.5185186 0 4-1.854519 4.4074075-5.3039251l.1851851-1.7803385h-.8518518c-.8148148 0-.8518519.0741808-1.0370371 1.4836154-.2222222 1.6690674-.5925925 2.4850558-1.1111111 2.4850558-.7777777 0-1.2592592-.8530788-1.7407407-3.0414116-1.2962963-6.0457328-1.8518519-7.2326251-3.7777778-8.1598847l-1.1111111-.5934462 1.5925926-.5192654c3.6296296-1.1127115 5.2592593-3.2268635 5.2222222-6.639179zm-13.6296296.7418077c0-3.4123154.0740741-4.9701116.3333333-5.1926539 2.1454728-.4884057 4.3730458-.4884057 6.5185185 0 1.4074075.6305365 2.1481482 1.6319769 2.4814815 3.3752251.4814815 2.6705077-.3703703 5.1926539-2.074074 6.0457328-1.1851852.6305365-4.0370371 1.0385307-5.7777778.8159884l-1.4814815-.1854519zm40.2222224-1.6319769c-.111111-2.8559597-.222222-5.3410155-.296296-5.5635578-.0740746-.2596327-2.518519-.3338135-10.9629634-.3338135h-10.8518519l-.1481481 1.7803385c-.1111112.96435-.2592593 3.4494058-.3333334 5.5264674l-.1851852 3.7461289.7777778-.0741807c.7407408-.0741808.8148148-.185452 1.3333333-2.7817789.8888889-4.7475694 2.2962963-6.4908175 5.1111112-6.4908175.8148148 0 1.6296296.1483616 1.8148148.3338135.5185185.5192654.4814815 23.2185812 0 23.6265754-.2222222.1854518-1.1481482.3709038-2.0740741.3709038l-1.7037037.111271v2.002881h12.4444444v-2.002881l-1.7037037-.074181c-.9259259-.03709-1.8518518-.222542-2.037037-.3709034-.5185185-.4450846-.5185185-23.1444004 0-23.6636658.4444444-.4450846 2.5555556-.4450846 3.7037037.0370904 1.7407407.7418077 2.7037037 2.7075981 3.4074074 6.7875405.2962963 1.8916097.3703704 2.0399712 1.1111111 2.114152l.7777778.0741807-.185185-5.1926539z" fill="#ed1b24"/></svg>