<?xml version="1.0" encoding="UTF-8"?>
<svg id="Layer_1" xmlns="http://www.w3.org/2000/svg" xmlns:xlink="http://www.w3.org/1999/xlink" version="1.1" viewBox="0 0 1080 1920">
  <!-- Generator: Adobe Illustrator 29.8.2, SVG Export Plug-In . SVG Version: 2.1.1 Build 3)  -->
  <defs>
    <style>
      .st0, .st1 {
        fill: none;
      }

      .st1 {
        stroke: #fff;
        stroke-miterlimit: 10;
        stroke-width: 5px;
      }

      .st2 {
        isolation: isolate;
      }

      .st3 {
        fill: #fff;
      }


    </style>
  <g class="st2">
    <g class="st2">
      <path class="st3" d="M451.52,792.69h11.39v40.26h-11.39v-40.26Z"/>
      <path class="st3" d="M509.31,792.69v40.26h-9.37l-17.77-21.45v21.45h-11.16v-40.26h9.37l17.77,21.45v-21.45h11.16Z"/>
      <path class="st3" d="M525.93,801.72h-12.36v-9.03h36.06v9.03h-12.31v31.23h-11.39v-31.23Z"/>
      <path class="st3" d="M571.48,822.25h-6.21v10.7h-11.39v-40.26h18.4c10.98,0,17.89,5.69,17.89,14.89,0,5.92-2.88,10.29-7.88,12.71l8.68,12.65h-12.19l-7.3-10.7ZM571.6,801.67h-6.33v11.79h6.33c4.72,0,7.07-2.19,7.07-5.87s-2.36-5.92-7.07-5.92Z"/>
      <path class="st3" d="M594.37,812.82c0-12.08,9.49-20.93,22.37-20.93s22.37,8.86,22.37,20.93-9.49,20.93-22.37,20.93-22.37-8.86-22.37-20.93ZM627.61,812.82c0-6.96-4.77-11.5-10.87-11.5s-10.87,4.54-10.87,11.5,4.77,11.5,10.87,11.5,10.87-4.54,10.87-11.5Z"/>
    </g>
    <g class="st2">
      <path class="st3" d="M391.33,886.77c0,3.54-2.56,6.47-7.96,6.47-2.85,0-5.72-.86-7.56-2.33l1.58-2.9c1.47,1.21,3.65,1.98,5.92,1.98,2.67,0,4.25-1.18,4.25-3.08s-1.24-3.13-5.4-3.13h-4.86l1.03-10.95h11.82v3.13h-8.65l-.43,4.66h1.93c5.95,0,8.34,2.59,8.34,6.15Z"/>
      <path class="st3" d="M393.37,879.81c0-1.44,1.06-2.39,2.36-2.39s2.36.95,2.36,2.39-1.06,2.39-2.36,2.39-2.36-1.01-2.36-2.39ZM393.37,890.77c0-1.44,1.06-2.39,2.36-2.39s2.36.95,2.36,2.39-1.06,2.39-2.36,2.39-2.36-1.01-2.36-2.39Z"/>
      <path class="st3" d="M400.5,882.89c0-6.61,3.62-10.35,8.39-10.35s8.42,3.74,8.42,10.35-3.62,10.35-8.42,10.35-8.39-3.74-8.39-10.35ZM413.55,882.89c0-4.86-1.9-7.1-4.66-7.1s-4.63,2.24-4.63,7.1,1.9,7.1,4.63,7.1,4.66-2.24,4.66-7.1Z"/>
      <path class="st3" d="M419.85,882.89c0-6.61,3.62-10.35,8.39-10.35s8.42,3.74,8.42,10.35-3.62,10.35-8.42,10.35-8.39-3.74-8.39-10.35ZM432.9,882.89c0-4.86-1.9-7.1-4.66-7.1s-4.63,2.24-4.63,7.1,1.9,7.1,4.63,7.1,4.66-2.24,4.66-7.1Z"/>
      <path class="st3" d="M445.87,883.78h14.37v2.36h-14.37v-2.36Z"/>
      <path class="st3" d="M484.07,886.77c0,3.54-2.56,6.47-7.96,6.47-2.85,0-5.72-.86-7.56-2.33l1.58-2.9c1.47,1.21,3.65,1.98,5.92,1.98,2.67,0,4.25-1.18,4.25-3.08s-1.24-3.13-5.4-3.13h-4.86l1.03-10.95h11.82v3.13h-8.65l-.43,4.66h1.93c5.95,0,8.34,2.59,8.34,6.15Z"/>
      <path class="st3" d="M486.12,879.81c0-1.44,1.06-2.39,2.36-2.39s2.36.95,2.36,2.39-1.06,2.39-2.36,2.39-2.36-1.01-2.36-2.39ZM486.12,890.77c0-1.44,1.06-2.39,2.36-2.39s2.36.95,2.36,2.39-1.06,2.39-2.36,2.39-2.36-1.01-2.36-2.39Z"/>
      <path class="st3" d="M500.2,872.83v20.12h-3.74v-16.99h-4.25v-3.13h7.99Z"/>
      <path class="st3" d="M518.83,886.77c0,3.54-2.56,6.47-7.96,6.47-2.85,0-5.72-.86-7.56-2.33l1.58-2.9c1.47,1.21,3.65,1.98,5.92,1.98,2.67,0,4.25-1.18,4.25-3.08s-1.24-3.13-5.4-3.13h-4.86l1.03-10.95h11.82v3.13h-8.65l-.43,4.66h1.93c5.95,0,8.34,2.59,8.34,6.15Z"/>
      <path class="st3" d="M547.21,879.99c0,4.43-3.28,7.16-8.57,7.16h-4.54v5.81h-3.74v-20.12h8.28c5.29,0,8.57,2.7,8.57,7.16ZM543.44,879.99c0-2.53-1.7-4-4.97-4h-4.37v7.99h4.37c3.28,0,4.97-1.47,4.97-4Z"/>
      <path class="st3" d="M569.43,892.95l-.03-13.34-6.61,11.04h-1.67l-6.61-10.87v13.17h-3.57v-20.12h3.08l7.99,13.34,7.85-13.34h3.08l.03,20.12h-3.54Z"/>
    </g>
    <g class="st2">
      <path class="st3" d="M586.14,890.91c0-7.01,2.53-14.49,6.47-19.29h2.1c-4.05,5.09-6.61,12.56-6.61,19.41,0,2.53.37,4.92,1.21,7.5h-1.84c-.8-2.13-1.32-5-1.32-7.62Z"/>
      <path class="st3" d="M603.02,872.83l-4.02,20.12h-2.1l3.65-18.28h-4.74l.37-1.84h6.84Z"/>
      <path class="st3" d="M610.9,874.67l-1.98,6.41h2.44c5.09,0,7.36,2.07,7.36,5.26,0,4.11-3.25,6.79-8.25,6.79-3.1,0-5.63-1.04-6.9-2.62l1.18-1.61c1.04,1.35,3.13,2.33,5.86,2.33,3.79,0,6.01-1.75,6.01-4.66,0-2.27-1.58-3.65-5.61-3.65h-4.66l3.05-10.09h10.98l-.37,1.84h-9.11Z"/>
      <path class="st3" d="M654.31,872.83l-4.02,20.12h-2.04l3.19-15.96-10.41,13.4h-1.01l-5.38-13.66-3.22,16.21h-2.04l4.02-20.12h1.72l5.81,14.95,11.5-14.95h1.87Z"/>
      <path class="st3" d="M660.86,872.83h2.1l-4.03,20.12h-2.1l4.03-20.12Z"/>
      <path class="st3" d="M686.33,872.83l-4.03,20.12h-1.72l-9.63-16.67-3.33,16.67h-2.1l4.02-20.12h1.72l9.63,16.67,3.33-16.67h2.1Z"/>
      <path class="st3" d="M687.46,890.56l1.04-1.67c1.35,1.44,3.91,2.42,6.47,2.42,3.51,0,5.92-1.44,5.92-3.97,0-4.63-10.46-2.3-10.46-8.62,0-3.79,3.36-6.07,8.05-6.07,2.39,0,4.69.6,6.24,1.72l-.89,1.73c-1.47-1.06-3.39-1.64-5.46-1.64-3.51,0-5.86,1.55-5.86,4.05-.03,4.69,10.49,2.44,10.49,8.54,0,3.88-3.45,6.07-8.22,6.07-2.99,0-5.95-1.09-7.3-2.56Z"/>
      <path class="st3" d="M711.35,879.12c0-2.53-.37-4.92-1.21-7.5h1.84c.8,2.13,1.32,5,1.32,7.62,0,7.01-2.53,14.49-6.47,19.29h-2.1c4.05-5.09,6.61-12.56,6.61-19.4Z"/>
    </g>
    <g class="st2">
      <path class="st3" d="M385.53,991.96h10.06v16.68c-4.66,3.34-11.04,5.12-16.91,5.12-12.82,0-22.2-8.68-22.2-20.93s9.37-20.93,22.43-20.93c7.53,0,13.63,2.59,17.6,7.36l-7.25,6.56c-2.76-3.05-5.92-4.49-9.78-4.49-6.9,0-11.5,4.54-11.5,11.5s4.6,11.5,11.39,11.5c2.13,0,4.14-.4,6.15-1.32v-11.04Z"/>
      <path class="st3" d="M402.49,995.01v-22.31h11.39v21.97c0,6.9,2.88,9.66,7.65,9.66s7.59-2.76,7.59-9.66v-21.97h11.21v22.31c0,12.02-7.02,18.75-18.92,18.75s-18.92-6.73-18.92-18.75Z"/>
      <path class="st3" d="M480.36,1004.15v8.8h-32.32v-40.26h31.57v8.8h-20.3v6.79h17.89v8.51h-17.89v7.36h21.05Z"/>
      <path class="st3" d="M483.87,1009.33l3.74-8.4c3.57,2.36,8.63,3.97,13.29,3.97s6.56-1.32,6.56-3.28c0-6.38-22.89-1.73-22.89-16.68,0-7.19,5.87-13.05,17.83-13.05,5.23,0,10.64,1.21,14.61,3.51l-3.51,8.45c-3.85-2.07-7.65-3.11-11.16-3.11-4.77,0-6.5,1.61-6.5,3.62,0,6.15,22.83,1.55,22.83,16.39,0,7.02-5.87,13-17.83,13-6.61,0-13.17-1.78-16.97-4.43Z"/>
      <path class="st3" d="M531.89,981.72h-12.36v-9.03h36.06v9.03h-12.31v31.23h-11.39v-31.23Z"/>
      <path class="st3" d="M585.14,981.72h-12.37v-9.03h36.06v9.03h-12.31v31.23h-11.39v-31.23Z"/>
      <path class="st3" d="M638.05,1005.13h-17.02l-3.16,7.82h-11.62l17.77-40.26h11.21l17.83,40.26h-11.85l-3.16-7.82ZM634.72,996.73l-5.18-12.88-5.18,12.88h10.35Z"/>
      <path class="st3" d="M656.28,972.69h11.39v31.23h19.21v9.03h-30.6v-40.26Z"/>
      <path class="st3" d="M706.89,998.34l-4.26,4.54v10.06h-11.27v-40.26h11.27v16.74l15.59-16.74h12.54l-16.45,17.83,17.31,22.43h-13.23l-11.5-14.61Z"/>
    </g>
    <g class="st2">
      <path class="st3" d="M392.64,1066.77c0,3.54-2.56,6.47-7.96,6.47-2.85,0-5.72-.86-7.56-2.33l1.58-2.9c1.47,1.21,3.65,1.98,5.92,1.98,2.67,0,4.25-1.18,4.25-3.08s-1.24-3.13-5.4-3.13h-4.86l1.04-10.95h11.82v3.13h-8.65l-.43,4.66h1.93c5.95,0,8.34,2.59,8.34,6.15Z"/>
      <path class="st3" d="M394.68,1059.81c0-1.44,1.06-2.39,2.36-2.39s2.36.95,2.36,2.39-1.06,2.39-2.36,2.39-2.36-1.01-2.36-2.39ZM394.68,1070.77c0-1.44,1.06-2.39,2.36-2.39s2.36.95,2.36,2.39-1.06,2.39-2.36,2.39-2.36-1.01-2.36-2.39Z"/>
      <path class="st3" d="M408.77,1052.83v20.12h-3.74v-16.99h-4.25v-3.13h7.99Z"/>
      <path class="st3" d="M427.4,1066.77c0,3.54-2.56,6.47-7.96,6.47-2.85,0-5.72-.86-7.56-2.33l1.58-2.9c1.47,1.21,3.65,1.98,5.92,1.98,2.67,0,4.25-1.18,4.25-3.08s-1.24-3.13-5.4-3.13h-4.86l1.03-10.95h11.82v3.13h-8.65l-.43,4.66h1.93c5.95,0,8.34,2.59,8.34,6.15Z"/>
      <path class="st3" d="M436.22,1063.78h14.37v2.36h-14.37v-2.36Z"/>
      <path class="st3" d="M474.43,1066.77c0,3.54-2.56,6.47-7.96,6.47-2.85,0-5.72-.86-7.56-2.33l1.58-2.9c1.47,1.21,3.65,1.98,5.92,1.98,2.67,0,4.25-1.18,4.25-3.08s-1.24-3.13-5.4-3.13h-4.86l1.03-10.95h11.82v3.13h-8.65l-.43,4.66h1.93c5.95,0,8.34,2.59,8.34,6.15Z"/>
      <path class="st3" d="M476.47,1059.81c0-1.44,1.06-2.39,2.36-2.39s2.36.95,2.36,2.39-1.06,2.39-2.36,2.39-2.36-1.01-2.36-2.39ZM476.47,1070.77c0-1.44,1.06-2.39,2.36-2.39s2.36.95,2.36,2.39-1.06,2.39-2.36,2.39-2.36-1.01-2.36-2.39Z"/>
      <path class="st3" d="M497.89,1066.91c0,3.39-2.56,6.32-7.96,6.32-2.85,0-5.69-.86-7.56-2.33l1.61-2.9c1.44,1.21,3.62,1.98,5.89,1.98,2.67,0,4.25-1.18,4.25-3.05s-1.32-2.99-4.37-2.99h-1.84v-2.56l4.57-5.43h-9.14v-3.13h13.71v2.5l-4.89,5.81c3.79.49,5.72,2.76,5.72,5.78Z"/>
      <path class="st3" d="M500.33,1062.89c0-6.61,3.62-10.35,8.39-10.35s8.42,3.74,8.42,10.35-3.62,10.35-8.42,10.35-8.39-3.74-8.39-10.35ZM513.39,1062.89c0-4.86-1.9-7.1-4.66-7.1s-4.63,2.24-4.63,7.1,1.9,7.1,4.63,7.1,4.66-2.24,4.66-7.1Z"/>
      <path class="st3" d="M545.9,1059.99c0,4.43-3.28,7.16-8.57,7.16h-4.54v5.81h-3.74v-20.12h8.28c5.29,0,8.57,2.7,8.57,7.16ZM542.13,1059.99c0-2.53-1.7-4-4.97-4h-4.37v7.99h4.37c3.28,0,4.97-1.47,4.97-4Z"/>
      <path class="st3" d="M568.12,1072.95l-.03-13.34-6.61,11.04h-1.67l-6.61-10.87v13.17h-3.56v-20.12h3.08l7.99,13.34,7.85-13.34h3.08l.03,20.12h-3.54Z"/>
    </g>
    <g class="st2">
      <path class="st3" d="M584.83,1070.91c0-7.01,2.53-14.49,6.47-19.29h2.1c-4.05,5.09-6.61,12.56-6.61,19.41,0,2.53.37,4.92,1.21,7.5h-1.84c-.81-2.13-1.32-5-1.32-7.62Z"/>
      <path class="st3" d="M601.71,1052.83l-4.02,20.12h-2.1l3.65-18.28h-4.74l.37-1.84h6.84Z"/>
      <path class="st3" d="M609.58,1054.67l-1.98,6.41h2.44c5.09,0,7.36,2.07,7.36,5.26,0,4.11-3.25,6.79-8.25,6.79-3.1,0-5.63-1.04-6.9-2.62l1.18-1.61c1.03,1.35,3.13,2.33,5.86,2.33,3.79,0,6.01-1.75,6.01-4.66,0-2.27-1.58-3.65-5.61-3.65h-4.66l3.05-10.09h10.98l-.37,1.84h-9.11Z"/>
      <path class="st3" d="M653,1052.83l-4.03,20.12h-2.04l3.19-15.96-10.41,13.4h-1.01l-5.38-13.66-3.22,16.21h-2.04l4.03-20.12h1.72l5.81,14.95,11.5-14.95h1.87Z"/>
      <path class="st3" d="M659.55,1052.83h2.1l-4.02,20.12h-2.1l4.02-20.12Z"/>
      <path class="st3" d="M685.02,1052.83l-4.02,20.12h-1.72l-9.63-16.67-3.33,16.67h-2.1l4.03-20.12h1.72l9.63,16.67,3.33-16.67h2.1Z"/>
      <path class="st3" d="M686.15,1070.56l1.04-1.67c1.35,1.44,3.91,2.42,6.47,2.42,3.51,0,5.92-1.44,5.92-3.97,0-4.63-10.46-2.3-10.46-8.62,0-3.79,3.36-6.07,8.05-6.07,2.39,0,4.69.6,6.24,1.72l-.89,1.73c-1.47-1.06-3.39-1.64-5.46-1.64-3.51,0-5.86,1.55-5.86,4.05-.03,4.69,10.49,2.44,10.49,8.54,0,3.88-3.45,6.07-8.22,6.07-2.99,0-5.95-1.09-7.3-2.56Z"/>
      <path class="st3" d="M710.04,1059.12c0-2.53-.37-4.92-1.21-7.5h1.84c.8,2.13,1.32,5,1.32,7.62,0,7.01-2.53,14.49-6.47,19.29h-2.1c4.05-5.09,6.61-12.56,6.61-19.4Z"/>
    </g>
    <g class="st2">
      <path class="st3" d="M313.01,1172.82c0-12.25,9.37-20.93,22.14-20.93,7.42,0,13.4,2.7,17.31,7.59l-7.25,6.56c-2.53-3.05-5.64-4.72-9.49-4.72-6.61,0-11.21,4.6-11.21,11.5s4.6,11.5,11.21,11.5c3.85,0,6.96-1.67,9.49-4.72l7.25,6.56c-3.91,4.89-9.89,7.59-17.31,7.59-12.77,0-22.14-8.68-22.14-20.93Z"/>
      <path class="st3" d="M357.52,1152.69h11.39v31.23h19.21v9.03h-30.6v-40.26Z"/>
      <path class="st3" d="M420.03,1185.13h-17.02l-3.16,7.82h-11.62l17.77-40.26h11.21l17.83,40.26h-11.85l-3.16-7.82ZM416.69,1176.73l-5.18-12.88-5.18,12.88h10.35Z"/>
      <path class="st3" d="M457.3,1178.51v14.44h-11.39v-14.61l-15.36-25.65h12.02l9.55,15.99,9.55-15.99h11.04l-15.41,25.82Z"/>
      <path class="st3" d="M519.29,1185.13h-17.02l-3.16,7.82h-11.62l17.77-40.26h11.21l17.83,40.26h-11.85l-3.16-7.82ZM515.96,1176.73l-5.18-12.88-5.18,12.88h10.35Z"/>
      <path class="st3" d="M534.88,1172.82c0-12.25,9.37-20.93,22.14-20.93,7.42,0,13.4,2.7,17.31,7.59l-7.25,6.56c-2.53-3.05-5.64-4.72-9.49-4.72-6.61,0-11.21,4.6-11.21,11.5s4.6,11.5,11.21,11.5c3.85,0,6.96-1.67,9.49-4.72l7.25,6.56c-3.91,4.89-9.89,7.59-17.31,7.59-12.77,0-22.14-8.68-22.14-20.93Z"/>
      <path class="st3" d="M587.61,1161.72h-12.36v-9.03h36.06v9.03h-12.31v31.23h-11.39v-31.23Z"/>
      <path class="st3" d="M615.56,1152.69h11.39v40.26h-11.39v-40.26Z"/>
      <path class="st3" d="M675.77,1152.69l-17.25,40.26h-11.21l-17.2-40.26h12.31l10.93,26.22,11.16-26.22h11.27Z"/>
      <path class="st3" d="M678.13,1152.69h11.39v40.26h-11.39v-40.26Z"/>
      <path class="st3" d="M706.2,1161.72h-12.36v-9.03h36.06v9.03h-12.31v31.23h-11.39v-31.23Z"/>
      <path class="st3" d="M754.74,1178.51v14.44h-11.39v-14.61l-15.36-25.65h12.02l9.55,15.99,9.55-15.99h11.04l-15.41,25.82Z"/>
    </g>
    <g class="st2">
      <path class="st3" d="M380.42,1246.77c0,3.54-2.56,6.47-7.96,6.47-2.85,0-5.72-.86-7.56-2.33l1.58-2.9c1.47,1.21,3.65,1.98,5.92,1.98,2.67,0,4.25-1.18,4.25-3.08s-1.24-3.13-5.4-3.13h-4.86l1.03-10.95h11.82v3.13h-8.65l-.43,4.66h1.93c5.95,0,8.34,2.59,8.34,6.15Z"/>
      <path class="st3" d="M382.46,1239.81c0-1.44,1.06-2.39,2.36-2.39s2.36.95,2.36,2.39-1.06,2.39-2.36,2.39-2.36-1.01-2.36-2.39ZM382.46,1250.77c0-1.44,1.06-2.39,2.36-2.39s2.36.95,2.36,2.39-1.06,2.39-2.36,2.39-2.36-1.01-2.36-2.39Z"/>
      <path class="st3" d="M403.88,1246.91c0,3.39-2.56,6.32-7.96,6.32-2.85,0-5.69-.86-7.56-2.33l1.61-2.9c1.44,1.21,3.62,1.98,5.89,1.98,2.67,0,4.25-1.18,4.25-3.05s-1.32-2.99-4.37-2.99h-1.84v-2.56l4.57-5.43h-9.14v-3.13h13.71v2.5l-4.89,5.81c3.79.49,5.72,2.76,5.72,5.78Z"/>
      <path class="st3" d="M406.32,1242.89c0-6.61,3.62-10.35,8.39-10.35s8.42,3.74,8.42,10.35-3.62,10.35-8.42,10.35-8.39-3.74-8.39-10.35ZM419.37,1242.89c0-4.86-1.9-7.1-4.66-7.1s-4.63,2.24-4.63,7.1,1.9,7.1,4.63,7.1,4.66-2.24,4.66-7.1Z"/>
      <path class="st3" d="M432.34,1243.78h14.37v2.36h-14.37v-2.36Z"/>
      <path class="st3" d="M470.55,1246.77c0,3.54-2.56,6.47-7.96,6.47-2.85,0-5.72-.86-7.56-2.33l1.58-2.9c1.47,1.21,3.65,1.98,5.92,1.98,2.67,0,4.25-1.18,4.25-3.08s-1.24-3.13-5.4-3.13h-4.86l1.03-10.95h11.82v3.13h-8.65l-.43,4.66h1.93c5.95,0,8.34,2.59,8.34,6.15Z"/>
      <path class="st3" d="M472.59,1239.81c0-1.44,1.06-2.39,2.36-2.39s2.36.95,2.36,2.39-1.06,2.39-2.36,2.39-2.36-1.01-2.36-2.39ZM472.59,1250.77c0-1.44,1.06-2.39,2.36-2.39s2.36.95,2.36,2.39-1.06,2.39-2.36,2.39-2.36-1.01-2.36-2.39Z"/>
      <path class="st3" d="M497.66,1248.38h-3.56v4.57h-3.62v-4.57h-11.04v-2.59l9.92-12.96h4l-9.34,12.39h6.58v-4.05h3.51v4.05h3.56v3.16Z"/>
      <path class="st3" d="M513.79,1246.77c0,3.54-2.56,6.47-7.96,6.47-2.85,0-5.72-.86-7.56-2.33l1.58-2.9c1.47,1.21,3.65,1.98,5.92,1.98,2.67,0,4.25-1.18,4.25-3.08s-1.24-3.13-5.4-3.13h-4.86l1.03-10.95h11.82v3.13h-8.65l-.43,4.66h1.93c5.95,0,8.34,2.59,8.34,6.15Z"/>
      <path class="st3" d="M542.16,1239.99c0,4.43-3.28,7.16-8.57,7.16h-4.54v5.81h-3.74v-20.12h8.28c5.29,0,8.57,2.7,8.57,7.16ZM538.4,1239.99c0-2.53-1.7-4-4.97-4h-4.37v7.99h4.37c3.28,0,4.97-1.47,4.97-4Z"/>
      <path class="st3" d="M564.38,1252.95l-.03-13.34-6.61,11.04h-1.67l-6.61-10.87v13.17h-3.56v-20.12h3.08l7.99,13.34,7.85-13.34h3.08l.03,20.12h-3.54Z"/>
    </g>
    <g class="st2">
      <path class="st3" d="M581.18,1250.91c0-7.01,2.53-14.49,6.47-19.29h2.1c-4.05,5.09-6.61,12.56-6.61,19.41,0,2.53.37,4.92,1.21,7.5h-1.84c-.81-2.13-1.32-5-1.32-7.62Z"/>
      <path class="st3" d="M598.06,1232.83l-4.02,20.12h-2.1l3.65-18.28h-4.74l.37-1.84h6.84Z"/>
      <path class="st3" d="M605.94,1234.67l-1.98,6.41h2.44c5.09,0,7.36,2.07,7.36,5.26,0,4.11-3.25,6.79-8.25,6.79-3.1,0-5.63-1.04-6.9-2.62l1.18-1.61c1.04,1.35,3.13,2.33,5.86,2.33,3.79,0,6.01-1.75,6.01-4.66,0-2.27-1.58-3.65-5.61-3.65h-4.66l3.05-10.09h10.98l-.37,1.84h-9.11Z"/>
      <path class="st3" d="M649.35,1232.83l-4.03,20.12h-2.04l3.19-15.96-10.41,13.4h-1.01l-5.38-13.66-3.22,16.21h-2.04l4.02-20.12h1.72l5.81,14.95,11.5-14.95h1.87Z"/>
      <path class="st3" d="M655.9,1232.83h2.1l-4.02,20.12h-2.1l4.03-20.12Z"/>
      <path class="st3" d="M681.37,1232.83l-4.03,20.12h-1.72l-9.63-16.67-3.33,16.67h-2.1l4.03-20.12h1.72l9.63,16.67,3.33-16.67h2.1Z"/>
      <path class="st3" d="M682.5,1250.56l1.04-1.67c1.35,1.44,3.91,2.42,6.47,2.42,3.51,0,5.92-1.44,5.92-3.97,0-4.63-10.46-2.3-10.46-8.62,0-3.79,3.36-6.07,8.05-6.07,2.39,0,4.69.6,6.24,1.72l-.89,1.73c-1.47-1.06-3.39-1.64-5.46-1.64-3.51,0-5.86,1.55-5.86,4.05-.03,4.69,10.49,2.44,10.49,8.54,0,3.88-3.45,6.07-8.22,6.07-2.99,0-5.95-1.09-7.3-2.56Z"/>
      <path class="st3" d="M706.39,1239.12c0-2.53-.37-4.92-1.21-7.5h1.84c.8,2.13,1.32,5,1.32,7.62,0,7.01-2.53,14.49-6.47,19.29h-2.1c4.05-5.09,6.61-12.56,6.61-19.4Z"/>
    </g>
    <g class="st2">
      <path class="st3" d="M323.48,1365.13h-17.02l-3.16,7.82h-11.62l17.77-40.26h11.21l17.83,40.26h-11.85l-3.16-7.82ZM320.14,1356.73l-5.18-12.88-5.18,12.88h10.35Z"/>
      <path class="st3" d="M359.31,1362.25h-6.21v10.7h-11.39v-40.26h18.4c10.98,0,17.89,5.69,17.89,14.89,0,5.92-2.88,10.29-7.88,12.71l8.68,12.65h-12.19l-7.3-10.7ZM359.42,1341.67h-6.33v11.79h6.33c4.72,0,7.07-2.19,7.07-5.87s-2.36-5.92-7.07-5.92Z"/>
      <path class="st3" d="M392.26,1341.72h-12.36v-9.03h36.06v9.03h-12.31v31.23h-11.39v-31.23Z"/>
      <path class="st3" d="M420.21,1332.69h11.39v40.26h-11.39v-40.26Z"/>
      <path class="st3" d="M436.89,1369.33l3.74-8.4c3.57,2.36,8.63,3.97,13.29,3.97s6.56-1.32,6.56-3.28c0-6.38-22.89-1.73-22.89-16.68,0-7.19,5.87-13.05,17.83-13.05,5.23,0,10.64,1.21,14.61,3.51l-3.51,8.45c-3.85-2.07-7.65-3.11-11.16-3.11-4.77,0-6.5,1.61-6.5,3.62,0,6.15,22.83,1.55,22.83,16.39,0,7.02-5.87,13-17.83,13-6.61,0-13.17-1.78-16.97-4.43Z"/>
      <path class="st3" d="M484.91,1341.72h-12.36v-9.03h36.06v9.03h-12.31v31.23h-11.39v-31.23Z"/>
      <path class="st3" d="M526.77,1369.33l3.74-8.4c3.57,2.36,8.63,3.97,13.29,3.97s6.56-1.32,6.56-3.28c0-6.38-22.89-1.73-22.89-16.68,0-7.19,5.87-13.05,17.83-13.05,5.23,0,10.64,1.21,14.61,3.51l-3.51,8.45c-3.85-2.07-7.65-3.11-11.16-3.11-4.77,0-6.5,1.61-6.5,3.62,0,6.15,22.83,1.55,22.83,16.39,0,7.02-5.87,13-17.83,13-6.61,0-13.17-1.78-16.97-4.43Z"/>
      <path class="st3" d="M599.12,1364.15v8.8h-32.32v-40.26h31.57v8.8h-20.3v6.79h17.89v8.51h-17.89v7.36h21.05Z"/>
      <path class="st3" d="M602.63,1369.33l3.74-8.4c3.57,2.36,8.63,3.97,13.29,3.97s6.56-1.32,6.56-3.28c0-6.38-22.89-1.73-22.89-16.68,0-7.19,5.87-13.05,17.83-13.05,5.23,0,10.64,1.21,14.61,3.51l-3.51,8.45c-3.85-2.07-7.65-3.11-11.16-3.11-4.77,0-6.5,1.61-6.5,3.62,0,6.15,22.83,1.55,22.83,16.39,0,7.02-5.87,13-17.83,13-6.61,0-13.17-1.78-16.97-4.43Z"/>
      <path class="st3" d="M639.84,1369.33l3.74-8.4c3.57,2.36,8.63,3.97,13.29,3.97s6.56-1.32,6.56-3.28c0-6.38-22.89-1.73-22.89-16.68,0-7.19,5.87-13.05,17.83-13.05,5.23,0,10.64,1.21,14.61,3.51l-3.51,8.45c-3.85-2.07-7.65-3.11-11.16-3.11-4.77,0-6.5,1.61-6.5,3.62,0,6.15,22.83,1.55,22.83,16.39,0,7.02-5.87,13-17.83,13-6.61,0-13.17-1.78-16.96-4.43Z"/>
      <path class="st3" d="M679.86,1332.69h11.39v40.26h-11.39v-40.26Z"/>
      <path class="st3" d="M697.29,1352.82c0-12.08,9.49-20.93,22.37-20.93s22.37,8.86,22.37,20.93-9.49,20.93-22.37,20.93-22.37-8.86-22.37-20.93ZM730.53,1352.82c0-6.96-4.77-11.5-10.87-11.5s-10.87,4.54-10.87,11.5,4.77,11.5,10.87,11.5,10.87-4.54,10.87-11.5Z"/>
      <path class="st3" d="M786.31,1332.69v40.26h-9.38l-17.77-21.45v21.45h-11.16v-40.26h9.38l17.77,21.45v-21.45h11.16Z"/>
    </g>
    <g class="st2">
      <path class="st3" d="M386.43,1426.77c0,3.54-2.56,6.47-7.96,6.47-2.85,0-5.72-.86-7.56-2.33l1.58-2.9c1.47,1.21,3.65,1.98,5.92,1.98,2.67,0,4.25-1.18,4.25-3.08s-1.24-3.13-5.4-3.13h-4.86l1.03-10.95h11.82v3.13h-8.65l-.43,4.66h1.93c5.95,0,8.34,2.59,8.34,6.15Z"/>
      <path class="st3" d="M388.47,1419.81c0-1.44,1.06-2.39,2.36-2.39s2.36.95,2.36,2.39-1.06,2.39-2.36,2.39-2.36-1.01-2.36-2.39ZM388.47,1430.77c0-1.44,1.06-2.39,2.36-2.39s2.36.95,2.36,2.39-1.06,2.39-2.36,2.39-2.36-1.01-2.36-2.39Z"/>
      <path class="st3" d="M413.54,1428.38h-3.56v4.57h-3.62v-4.57h-11.04v-2.59l9.92-12.96h4l-9.34,12.39h6.58v-4.05h3.51v4.05h3.56v3.16Z"/>
      <path class="st3" d="M429.67,1426.77c0,3.54-2.56,6.47-7.96,6.47-2.85,0-5.72-.86-7.56-2.33l1.58-2.9c1.47,1.21,3.65,1.98,5.92,1.98,2.67,0,4.25-1.18,4.25-3.08s-1.24-3.13-5.4-3.13h-4.86l1.03-10.95h11.82v3.13h-8.65l-.43,4.66h1.93c5.95,0,8.34,2.59,8.34,6.15Z"/>
      <path class="st3" d="M438.49,1423.78h14.37v2.36h-14.37v-2.36Z"/>
      <path class="st3" d="M478.14,1426.71c0,4-3.25,6.53-7.36,6.53-5.49,0-8.71-3.54-8.71-10,0-6.9,4.02-10.69,9.86-10.69,2.01,0,3.94.43,5.29,1.29l-1.38,2.82c-1.09-.72-2.42-.98-3.82-.98-3.79,0-6.18,2.36-6.18,6.93v.03c1.21-1.41,3.13-2.1,5.38-2.1,3.97,0,6.93,2.42,6.93,6.18ZM474.52,1426.88c0-2.1-1.58-3.42-4.02-3.42s-4.08,1.47-4.08,3.45,1.49,3.39,4.17,3.39c2.33,0,3.94-1.32,3.94-3.42Z"/>
      <path class="st3" d="M479.98,1419.81c0-1.44,1.06-2.39,2.36-2.39s2.36.95,2.36,2.39-1.06,2.39-2.36,2.39-2.36-1.01-2.36-2.39ZM479.98,1430.77c0-1.44,1.06-2.39,2.36-2.39s2.36.95,2.36,2.39-1.06,2.39-2.36,2.39-2.36-1.01-2.36-2.39Z"/>
      <path class="st3" d="M487.11,1422.89c0-6.61,3.62-10.35,8.39-10.35s8.42,3.74,8.42,10.35-3.62,10.35-8.42,10.35-8.39-3.74-8.39-10.35ZM500.16,1422.89c0-4.86-1.9-7.1-4.66-7.1s-4.63,2.24-4.63,7.1,1.9,7.1,4.63,7.1,4.66-2.24,4.66-7.1Z"/>
      <path class="st3" d="M506.46,1422.89c0-6.61,3.62-10.35,8.39-10.35s8.42,3.74,8.42,10.35-3.62,10.35-8.42,10.35-8.39-3.74-8.39-10.35ZM519.51,1422.89c0-4.86-1.9-7.1-4.66-7.1s-4.63,2.24-4.63,7.1,1.9,7.1,4.63,7.1,4.66-2.24,4.66-7.1Z"/>
      <path class="st3" d="M552.02,1419.99c0,4.43-3.28,7.16-8.57,7.16h-4.54v5.81h-3.74v-20.12h8.28c5.29,0,8.57,2.7,8.57,7.16ZM548.26,1419.99c0-2.53-1.7-4-4.97-4h-4.37v7.99h4.37c3.28,0,4.97-1.47,4.97-4Z"/>
      <path class="st3" d="M574.25,1432.95l-.03-13.34-6.61,11.04h-1.67l-6.61-10.87v13.17h-3.56v-20.12h3.08l7.99,13.34,7.85-13.34h3.08l.03,20.12h-3.54Z"/>
    </g>
    <g class="st2">
      <path class="st3" d="M591.04,1430.91c0-7.01,2.53-14.49,6.47-19.29h2.1c-4.05,5.09-6.61,12.56-6.61,19.41,0,2.53.37,4.92,1.21,7.5h-1.84c-.81-2.13-1.32-5-1.32-7.62Z"/>
      <path class="st3" d="M607.92,1412.83l-4.02,20.12h-2.1l3.65-18.28h-4.74l.37-1.84h6.84Z"/>
      <path class="st3" d="M615.79,1414.67l-1.98,6.41h2.44c5.09,0,7.36,2.07,7.36,5.26,0,4.11-3.25,6.79-8.25,6.79-3.1,0-5.63-1.04-6.9-2.62l1.18-1.61c1.03,1.35,3.13,2.33,5.86,2.33,3.79,0,6.01-1.75,6.01-4.66,0-2.27-1.58-3.65-5.61-3.65h-4.66l3.05-10.09h10.98l-.37,1.84h-9.11Z"/>
      <path class="st3" d="M659.21,1412.83l-4.03,20.12h-2.04l3.19-15.96-10.41,13.4h-1.01l-5.38-13.66-3.22,16.21h-2.04l4.03-20.12h1.72l5.81,14.95,11.5-14.95h1.87Z"/>
      <path class="st3" d="M665.76,1412.83h2.1l-4.02,20.12h-2.1l4.02-20.12Z"/>
      <path class="st3" d="M691.23,1412.83l-4.02,20.12h-1.72l-9.63-16.67-3.33,16.67h-2.1l4.03-20.12h1.72l9.63,16.67,3.33-16.67h2.1Z"/>
      <path class="st3" d="M692.36,1430.56l1.04-1.67c1.35,1.44,3.91,2.42,6.47,2.42,3.51,0,5.92-1.44,5.92-3.97,0-4.63-10.46-2.3-10.46-8.62,0-3.79,3.36-6.07,8.05-6.07,2.39,0,4.69.6,6.24,1.72l-.89,1.73c-1.47-1.06-3.39-1.64-5.46-1.64-3.51,0-5.86,1.55-5.86,4.05-.03,4.69,10.49,2.44,10.49,8.54,0,3.88-3.45,6.07-8.22,6.07-2.99,0-5.95-1.09-7.3-2.56Z"/>
      <path class="st3" d="M716.25,1419.12c0-2.53-.37-4.92-1.21-7.5h1.84c.8,2.13,1.32,5,1.32,7.62,0,7.01-2.53,14.49-6.47,19.29h-2.1c4.05-5.09,6.61-12.56,6.61-19.4Z"/>
    </g>
    <g class="st2">
      <path class="st3" d="M378.68,1535.01v-22.31h11.39v21.97c0,6.9,2.88,9.66,7.65,9.66s7.59-2.76,7.59-9.66v-21.97h11.21v22.31c0,12.02-7.02,18.75-18.92,18.75s-18.92-6.73-18.92-18.75Z"/>
      <path class="st3" d="M462.53,1512.69v40.26h-9.37l-17.77-21.45v21.45h-11.16v-40.26h9.37l17.77,21.45v-21.45h11.16Z"/>
      <path class="st3" d="M511.3,1512.69l-17.25,40.26h-11.21l-17.2-40.26h12.31l10.93,26.22,11.16-26.22h11.27Z"/>
      <path class="st3" d="M545.98,1544.15v8.8h-32.32v-40.26h31.57v8.8h-20.3v6.79h17.89v8.51h-17.89v7.36h21.05Z"/>
      <path class="st3" d="M552.3,1512.69h11.39v40.26h-11.39v-40.26Z"/>
      <path class="st3" d="M571.8,1512.69h11.39v31.23h19.21v9.03h-30.59v-40.26Z"/>
      <path class="st3" d="M606.88,1512.69h11.39v40.26h-11.39v-40.26Z"/>
      <path class="st3" d="M664.68,1512.69v40.26h-9.38l-17.77-21.45v21.45h-11.16v-40.26h9.38l17.77,21.45v-21.45h11.16Z"/>
      <path class="st3" d="M699.7,1531.96h10.06v16.68c-4.66,3.34-11.04,5.12-16.91,5.12-12.83,0-22.2-8.68-22.2-20.93s9.37-20.93,22.43-20.93c7.53,0,13.63,2.59,17.6,7.36l-7.25,6.56c-2.76-3.05-5.92-4.49-9.78-4.49-6.9,0-11.5,4.54-11.5,11.5s4.6,11.5,11.39,11.5c2.13,0,4.14-.4,6.15-1.32v-11.04Z"/>
    </g>
    <g class="st2">
      <path class="st3" d="M391.54,1606.71c0,4-3.25,6.53-7.36,6.53-5.49,0-8.71-3.54-8.71-10,0-6.9,4.02-10.69,9.86-10.69,2.01,0,3.94.43,5.29,1.29l-1.38,2.82c-1.09-.72-2.42-.98-3.82-.98-3.79,0-6.18,2.36-6.18,6.93v.03c1.21-1.41,3.13-2.1,5.38-2.1,3.97,0,6.93,2.42,6.93,6.18ZM387.91,1606.88c0-2.1-1.58-3.42-4.02-3.42s-4.08,1.47-4.08,3.45,1.49,3.39,4.17,3.39c2.33,0,3.94-1.32,3.94-3.42Z"/>
      <path class="st3" d="M393.38,1599.81c0-1.44,1.06-2.39,2.36-2.39s2.36.95,2.36,2.39-1.06,2.39-2.36,2.39-2.36-1.01-2.36-2.39ZM393.38,1610.77c0-1.44,1.06-2.39,2.36-2.39s2.36.95,2.36,2.39-1.06,2.39-2.36,2.39-2.36-1.01-2.36-2.39Z"/>
      <path class="st3" d="M400.51,1602.89c0-6.61,3.62-10.35,8.39-10.35s8.42,3.74,8.42,10.35-3.62,10.35-8.42,10.35-8.39-3.74-8.39-10.35ZM413.56,1602.89c0-4.86-1.9-7.1-4.66-7.1s-4.63,2.24-4.63,7.1,1.9,7.1,4.63,7.1,4.66-2.24,4.66-7.1Z"/>
      <path class="st3" d="M419.85,1602.89c0-6.61,3.62-10.35,8.39-10.35s8.42,3.74,8.42,10.35-3.62,10.35-8.42,10.35-8.39-3.74-8.39-10.35ZM432.91,1602.89c0-4.86-1.9-7.1-4.66-7.1s-4.63,2.24-4.63,7.1,1.9,7.1,4.63,7.1,4.66-2.24,4.66-7.1Z"/>
      <path class="st3" d="M445.87,1603.78h14.37v2.36h-14.37v-2.36Z"/>
      <path class="st3" d="M485.52,1606.71c0,4-3.25,6.53-7.36,6.53-5.49,0-8.71-3.54-8.71-10,0-6.9,4.02-10.69,9.86-10.69,2.01,0,3.94.43,5.29,1.29l-1.38,2.82c-1.09-.72-2.42-.98-3.82-.98-3.79,0-6.18,2.36-6.18,6.93v.03c1.21-1.41,3.13-2.1,5.38-2.1,3.97,0,6.93,2.42,6.93,6.18ZM481.89,1606.88c0-2.1-1.58-3.42-4.02-3.42s-4.08,1.47-4.08,3.45,1.49,3.39,4.17,3.39c2.33,0,3.94-1.32,3.94-3.42Z"/>
      <path class="st3" d="M487.36,1599.81c0-1.44,1.06-2.39,2.36-2.39s2.36.95,2.36,2.39-1.06,2.39-2.36,2.39-2.36-1.01-2.36-2.39ZM487.36,1610.77c0-1.44,1.06-2.39,2.36-2.39s2.36.95,2.36,2.39-1.06,2.39-2.36,2.39-2.36-1.01-2.36-2.39Z"/>
      <path class="st3" d="M501.44,1592.83v20.12h-3.74v-16.99h-4.25v-3.13h7.99Z"/>
      <path class="st3" d="M520.07,1606.77c0,3.54-2.56,6.47-7.96,6.47-2.85,0-5.72-.86-7.56-2.33l1.58-2.9c1.47,1.21,3.65,1.98,5.92,1.98,2.67,0,4.25-1.18,4.25-3.08s-1.24-3.13-5.4-3.13h-4.86l1.03-10.95h11.82v3.13h-8.65l-.43,4.66h1.93c5.95,0,8.34,2.59,8.34,6.15Z"/>
      <path class="st3" d="M548.45,1599.99c0,4.43-3.28,7.16-8.57,7.16h-4.54v5.81h-3.74v-20.12h8.28c5.29,0,8.57,2.7,8.57,7.16ZM544.68,1599.99c0-2.53-1.7-4-4.97-4h-4.37v7.99h4.37c3.28,0,4.97-1.47,4.97-4Z"/>
      <path class="st3" d="M570.67,1612.95l-.03-13.34-6.61,11.04h-1.67l-6.61-10.87v13.17h-3.56v-20.12h3.08l7.99,13.34,7.85-13.34h3.08l.03,20.12h-3.54Z"/>
    </g>
    <g class="st2">
      <path class="st3" d="M587.38,1610.91c0-7.01,2.53-14.49,6.47-19.29h2.1c-4.05,5.09-6.61,12.56-6.61,19.41,0,2.53.37,4.92,1.21,7.5h-1.84c-.81-2.13-1.32-5-1.32-7.62Z"/>
      <path class="st3" d="M604.26,1592.83l-4.02,20.12h-2.1l3.65-18.28h-4.74l.37-1.84h6.84Z"/>
      <path class="st3" d="M612.13,1594.67l-1.98,6.41h2.44c5.09,0,7.36,2.07,7.36,5.26,0,4.11-3.25,6.79-8.25,6.79-3.1,0-5.63-1.04-6.9-2.62l1.18-1.61c1.03,1.35,3.13,2.33,5.86,2.33,3.79,0,6.01-1.75,6.01-4.66,0-2.27-1.58-3.65-5.61-3.65h-4.66l3.05-10.09h10.98l-.37,1.84h-9.11Z"/>
      <path class="st3" d="M655.55,1592.83l-4.03,20.12h-2.04l3.19-15.96-10.41,13.4h-1.01l-5.38-13.66-3.22,16.21h-2.04l4.03-20.12h1.72l5.81,14.95,11.5-14.95h1.87Z"/>
      <path class="st3" d="M662.1,1592.83h2.1l-4.02,20.12h-2.1l4.02-20.12Z"/>
      <path class="st3" d="M687.57,1592.83l-4.02,20.12h-1.72l-9.63-16.67-3.33,16.67h-2.1l4.03-20.12h1.72l9.63,16.67,3.33-16.67h2.1Z"/>
      <path class="st3" d="M688.7,1610.56l1.04-1.67c1.35,1.44,3.91,2.42,6.47,2.42,3.51,0,5.92-1.44,5.92-3.97,0-4.63-10.46-2.3-10.46-8.62,0-3.79,3.36-6.07,8.05-6.07,2.39,0,4.69.6,6.24,1.72l-.89,1.73c-1.47-1.06-3.39-1.64-5.46-1.64-3.51,0-5.86,1.55-5.86,4.05-.03,4.69,10.49,2.44,10.49,8.54,0,3.88-3.45,6.07-8.22,6.07-2.99,0-5.95-1.09-7.3-2.56Z"/>
      <path class="st3" d="M712.59,1599.12c0-2.53-.37-4.92-1.21-7.5h1.84c.8,2.13,1.32,5,1.32,7.62,0,7.01-2.53,14.49-6.47,19.29h-2.1c4.05-5.09,6.61-12.56,6.61-19.4Z"/>
    </g>
    <g class="st2">
      <path class="st3" d="M181.89,1692.69v40.26h-11.39v-15.7h-15.53v15.7h-11.39v-40.26h11.39v15.12h15.53v-15.12h11.39Z"/>
      <path class="st3" d="M189.94,1692.69h11.39v40.26h-11.39v-40.26Z"/>
      <path class="st3" d="M236.41,1711.96h10.06v16.68c-4.66,3.34-11.04,5.12-16.91,5.12-12.82,0-22.2-8.68-22.2-20.93s9.37-20.93,22.43-20.93c7.53,0,13.63,2.59,17.6,7.36l-7.25,6.56c-2.76-3.05-5.92-4.49-9.78-4.49-6.9,0-11.5,4.54-11.5,11.5s4.6,11.5,11.39,11.5c2.13,0,4.14-.4,6.15-1.32v-11.04Z"/>
      <path class="st3" d="M292.02,1692.69v40.26h-11.39v-15.7h-15.53v15.7h-11.39v-40.26h11.39v15.12h15.53v-15.12h11.39Z"/>
      <path class="st3" d="M325.37,1701.72h-12.36v-9.03h36.06v9.03h-12.31v31.23h-11.39v-31.23Z"/>
      <path class="st3" d="M385.64,1724.15v8.8h-32.32v-40.26h31.57v8.8h-20.3v6.79h17.89v8.51h-17.89v7.36h21.05Z"/>
      <path class="st3" d="M418.94,1725.13h-17.02l-3.16,7.82h-11.62l17.77-40.26h11.21l17.83,40.26h-11.85l-3.16-7.82ZM415.61,1716.73l-5.18-12.88-5.18,12.88h10.35Z"/>
      <path class="st3" d="M485.77,1733.64l-4.54-4.03c-3.74,2.65-8.4,4.14-13.52,4.14-9.26,0-16.05-4.77-16.05-11.33,0-5.12,2.59-8.68,8.4-11.85-2.65-2.7-3.85-5.35-3.85-8.11,0-6.15,5.35-10.35,13.52-10.35,7.42,0,12.42,3.74,12.42,9.66,0,4.14-2.36,7.25-7.48,10.06l5.87,5.23c.81-1.73,1.38-3.62,1.78-5.75l8.8,2.65c-.75,3.39-2.01,6.5-3.74,9.14l4.26,3.79-5.87,6.73ZM474.67,1723.75l-8.68-7.71c-2.59,1.55-3.62,3.16-3.62,5.18,0,2.42,2.36,4.2,6.15,4.2,2.19,0,4.31-.58,6.15-1.67ZM466.16,1702.3c0,1.27.52,2.24,2.59,4.2,3.11-1.67,4.2-2.99,4.2-4.49,0-1.61-1.09-2.7-3.22-2.7-2.3,0-3.57,1.27-3.57,2.99Z"/>
      <path class="st3" d="M552.19,1692.69v40.26h-9.37l-17.77-21.45v21.45h-11.16v-40.26h9.37l17.77,21.45v-21.45h11.16Z"/>
      <path class="st3" d="M592.56,1724.15v8.8h-32.32v-40.26h31.57v8.8h-20.3v6.79h17.89v8.51h-17.89v7.36h21.05Z"/>
      <path class="st3" d="M607.46,1701.72h-12.36v-9.03h36.06v9.03h-12.31v31.23h-11.39v-31.23Z"/>
      <path class="st3" d="M697.57,1692.69l-13.05,40.26h-12.19l-7.71-24.5-8.05,24.5h-12.19l-13.06-40.26h11.73l8.11,25.71,8.51-25.71h10.47l8.11,25.94,8.45-25.94h10.87Z"/>
      <path class="st3" d="M699.07,1712.82c0-12.08,9.49-20.93,22.37-20.93s22.37,8.86,22.37,20.93-9.49,20.93-22.37,20.93-22.37-8.86-22.37-20.93ZM732.31,1712.82c0-6.96-4.77-11.5-10.87-11.5s-10.87,4.54-10.87,11.5,4.77,11.5,10.87,11.5,10.87-4.54,10.87-11.5Z"/>
      <path class="st3" d="M767.39,1722.25h-6.21v10.7h-11.39v-40.26h18.4c10.98,0,17.89,5.69,17.89,14.89,0,5.92-2.88,10.29-7.88,12.71l8.68,12.65h-12.19l-7.3-10.7ZM767.51,1701.67h-6.33v11.79h6.33c4.72,0,7.07-2.19,7.07-5.87s-2.36-5.92-7.07-5.92Z"/>
      <path class="st3" d="M807.88,1718.34l-4.26,4.54v10.06h-11.27v-40.26h11.27v16.74l15.58-16.74h12.54l-16.45,17.83,17.31,22.43h-13.23l-11.5-14.61Z"/>
      <path class="st3" d="M835.6,1692.69h11.39v40.26h-11.39v-40.26Z"/>
      <path class="st3" d="M893.39,1692.69v40.26h-9.37l-17.77-21.45v21.45h-11.16v-40.26h9.38l17.77,21.45v-21.45h11.16Z"/>
      <path class="st3" d="M928.42,1711.96h10.06v16.68c-4.66,3.34-11.04,5.12-16.91,5.12-12.83,0-22.2-8.68-22.2-20.93s9.37-20.93,22.43-20.93c7.53,0,13.63,2.59,17.6,7.36l-7.25,6.56c-2.76-3.05-5.92-4.49-9.78-4.49-6.9,0-11.5,4.54-11.5,11.5s4.6,11.5,11.39,11.5c2.13,0,4.14-.4,6.15-1.32v-11.04Z"/>
    </g>
    <g class="st2">
      <path class="st3" d="M466.38,1779.99c0,4.43-3.28,7.16-8.57,7.16h-4.54v5.81h-3.74v-20.12h8.28c5.29,0,8.57,2.7,8.57,7.16ZM462.61,1779.99c0-2.53-1.7-4-4.97-4h-4.37v7.99h4.37c3.28,0,4.97-1.47,4.97-4Z"/>
      <path class="st3" d="M468.97,1782.89c0-5.95,4.6-10.35,10.84-10.35s10.84,4.37,10.84,10.35-4.6,10.35-10.84,10.35-10.84-4.4-10.84-10.35ZM486.88,1782.89c0-4.11-3.02-7.07-7.07-7.07s-7.07,2.96-7.07,7.07,3.02,7.07,7.07,7.07,7.07-2.96,7.07-7.07Z"/>
      <path class="st3" d="M492.92,1790.82l1.29-2.9c1.61,1.29,4.17,2.21,6.64,2.21,3.13,0,4.46-1.12,4.46-2.62,0-4.34-11.96-1.49-11.96-8.97,0-3.25,2.59-6.01,8.11-6.01,2.41,0,4.94.63,6.7,1.78l-1.18,2.9c-1.81-1.06-3.79-1.58-5.55-1.58-3.1,0-4.37,1.21-4.37,2.73,0,4.28,11.93,1.5,11.93,8.88,0,3.22-2.62,5.98-8.14,5.98-3.13,0-6.27-.98-7.93-2.41Z"/>
      <path class="st3" d="M516.49,1775.99h-6.67v-3.16h17.08v3.16h-6.67v16.96h-3.74v-16.96Z"/>
      <path class="st3" d="M552.28,1786.71c0,4-3.25,6.53-7.36,6.53-5.49,0-8.71-3.54-8.71-10,0-6.9,4.02-10.69,9.86-10.69,2.01,0,3.94.43,5.29,1.29l-1.38,2.82c-1.09-.72-2.42-.98-3.82-.98-3.79,0-6.18,2.36-6.18,6.93v.03c1.21-1.41,3.13-2.1,5.38-2.1,3.97,0,6.93,2.42,6.93,6.18ZM548.66,1786.88c0-2.1-1.58-3.42-4.02-3.42s-4.08,1.47-4.08,3.45,1.5,3.39,4.17,3.39c2.33,0,3.94-1.32,3.94-3.42Z"/>
      <path class="st3" d="M554.12,1779.81c0-1.44,1.06-2.39,2.36-2.39s2.36.95,2.36,2.39-1.06,2.39-2.36,2.39-2.36-1.01-2.36-2.39ZM554.12,1790.77c0-1.44,1.06-2.39,2.36-2.39s2.36.95,2.36,2.39-1.06,2.39-2.36,2.39-2.36-1.01-2.36-2.39Z"/>
      <path class="st3" d="M568.21,1772.83v20.12h-3.74v-16.99h-4.25v-3.13h7.99Z"/>
      <path class="st3" d="M586.84,1786.77c0,3.54-2.56,6.47-7.96,6.47-2.85,0-5.72-.86-7.56-2.33l1.58-2.9c1.47,1.21,3.65,1.98,5.92,1.98,2.67,0,4.25-1.18,4.25-3.08s-1.24-3.13-5.4-3.13h-4.86l1.04-10.95h11.82v3.13h-8.65l-.43,4.66h1.93c5.95,0,8.34,2.59,8.34,6.15Z"/>
      <path class="st3" d="M615.21,1779.99c0,4.43-3.28,7.16-8.57,7.16h-4.54v5.81h-3.74v-20.12h8.28c5.29,0,8.57,2.7,8.57,7.16ZM611.45,1779.99c0-2.53-1.7-4-4.97-4h-4.37v7.99h4.37c3.28,0,4.97-1.47,4.97-4Z"/>
      <path class="st3" d="M637.44,1792.95l-.03-13.34-6.61,11.04h-1.67l-6.61-10.87v13.17h-3.56v-20.12h3.08l7.99,13.34,7.85-13.34h3.08l.03,20.12h-3.54Z"/>
    </g>
  </g>
  <line class="st1" x1="540" y1="953.91" x2="540" y2="908.58"/>
  <line class="st1" x1="540" y1="1134.76" x2="540" y2="1089.43"/>
  <line class="st1" x1="540" y1="1315.6" x2="540" y2="1270.27"/>
  <line class="st1" x1="540" y1="1496.45" x2="540" y2="1451.12"/>
  <line class="st1" x1="540" y1="1677.29" x2="540" y2="1631.97"/>
</svg>